<svg width="200" height="200" viewBox="0 0 200 200" fill="none" xmlns="http://www.w3.org/2000/svg">
<rect width="200" height="200" rx="100" fill="#00A3FF"/>
<path d="M119.153 108.428C117.611 108.305 116.257 109.455 116.132 110.998C116.107 111.312 116.08 111.625 116.052 111.937C115.914 113.48 117.052 114.842 118.594 114.981C118.68 114.989 118.764 114.992 118.848 114.992C120.283 114.992 121.507 113.896 121.638 112.439C121.667 112.11 121.695 111.78 121.722 111.448C121.847 109.905 120.696 108.553 119.153 108.428Z" fill="white"/>
<path d="M82.7698 60.1679C78.3254 60.1679 74.7095 63.7839 74.7095 68.228C74.7095 72.6724 78.3254 76.2884 82.7698 76.2884C87.2143 76.2884 90.8302 72.6724 90.8302 68.228C90.8302 63.7839 87.2143 60.1679 82.7698 60.1679ZM82.7701 70.6803C81.4181 70.6803 80.3179 69.5803 80.3179 68.228C80.3179 66.8757 81.4178 65.776 82.7701 65.776C84.1221 65.776 85.2224 66.8757 85.2224 68.228C85.2224 69.5803 84.1221 70.6803 82.7701 70.6803Z" fill="white"/>
<path d="M117.23 60.1679C112.786 60.1679 109.17 63.7839 109.17 68.228C109.17 72.6724 112.786 76.2884 117.23 76.2884C121.674 76.2884 125.29 72.6724 125.29 68.228C125.29 63.7839 121.674 60.1679 117.23 60.1679ZM117.23 70.6803C115.878 70.6803 114.778 69.5803 114.778 68.228C114.778 66.8757 115.878 65.776 117.23 65.776C118.582 65.776 119.682 66.8757 119.682 68.228C119.682 69.5803 118.582 70.6803 117.23 70.6803Z" fill="white"/>
<path d="M136.335 147.031H116.281C127.989 138.419 135.559 120.965 135.559 101.57C135.559 95.9544 134.933 90.4491 133.699 85.1881C136.065 80.2002 137.264 74.8484 137.264 69.2642C137.264 66.4151 136.938 63.5854 136.302 60.8436C136.279 60.6667 136.24 60.4896 136.181 60.3142C136.175 60.2951 136.168 60.2755 136.161 60.2571C134.199 52.3535 129.602 45.1989 123.195 40.0976C116.543 34.7999 108.522 32 99.9998 32C91.481 32 83.462 34.7986 76.81 40.0936C70.3755 45.2153 65.7635 52.4061 63.8156 60.3424C63.8018 60.3918 63.7901 60.4412 63.7793 60.4906C63.0878 63.3376 62.7359 66.2887 62.7359 69.2642C62.7359 74.8492 63.9352 80.2005 66.3008 85.1876C65.067 90.4491 64.4412 95.9547 64.4412 101.57C64.4412 120.965 72.011 138.419 83.7197 147.031H63.665C62.1164 147.031 60.8608 148.286 60.8608 149.835C60.8608 151.384 62.1162 152.639 63.665 152.639H84.8173L82.9178 157.91C82.0858 160.215 82.4301 162.789 83.8387 164.795C85.2478 166.801 87.5527 168 90.0044 168H99.9998H109.995C112.447 168 114.752 166.801 116.161 164.795C117.57 162.789 117.914 160.215 117.082 157.911L115.182 152.639H136.335C137.883 152.639 139.139 151.384 139.139 149.835C139.139 148.286 137.884 147.031 136.335 147.031ZM99.9998 37.6081C109.083 37.6081 117.392 41.4249 123.222 47.7101C121.315 47.1103 119.299 46.7884 117.23 46.7884C111.88 46.7884 106.849 48.8711 103.061 52.6555C101.867 53.8508 100.843 55.1707 99.9998 56.5851C99.1562 55.1702 98.132 53.8497 96.9369 52.6534C93.151 48.8711 88.1198 46.7881 82.7698 46.7881C80.7003 46.7881 78.6845 47.11 76.7771 47.7101C82.6075 41.4252 90.9171 37.6081 99.9998 37.6081ZM69.2121 61.8878C71.2813 56.2058 76.7112 52.3968 82.7701 52.3968C86.623 52.3968 90.2466 53.897 92.9714 56.6191C95.6956 59.346 97.1959 62.9694 97.1959 66.8226V78.9167C97.1959 80.4656 98.4512 81.7209 100 81.7209C101.548 81.7209 102.804 80.4656 102.804 78.9167V66.8226C102.804 62.9694 104.305 59.346 107.027 56.6213C109.754 53.897 113.377 52.3968 117.23 52.3968C123.294 52.3968 128.725 56.2106 130.791 61.9003C131.364 64.292 131.656 66.7684 131.656 69.2645C131.656 74.3113 130.506 79.1316 128.237 83.5917C125.801 88.382 122.155 92.5063 117.689 95.5188C112.458 99.0503 106.341 100.917 100 100.917C93.6599 100.917 87.5434 99.0503 82.3108 95.5183C77.8489 92.5074 74.2037 88.3862 71.7679 83.5986C71.753 83.5702 71.7406 83.5404 71.7252 83.5128C69.4825 79.075 68.3443 74.2821 68.3443 69.2645C68.344 66.7615 68.6367 64.2824 69.2121 61.8878ZM76.0875 128.85C72.1374 120.92 70.0491 111.487 70.0491 101.57C70.0491 98.4202 70.269 95.3132 70.69 92.2718C72.7645 94.9102 75.1931 97.2674 77.9041 99.2667C77.8898 100.052 77.8821 100.817 77.8821 101.57C77.8821 114.698 79.9316 127.112 83.6533 136.525C84.4055 138.427 85.2154 140.173 86.0763 141.758C82.1977 138.624 78.7501 134.195 76.0875 128.85ZM97.1959 162.392H90.0041C89.1012 162.392 88.6013 161.818 88.4282 161.572C88.2555 161.326 87.8865 160.662 88.1928 159.813L90.7781 152.639H97.1956V162.392H97.1959ZM111.571 161.572C111.399 161.818 110.898 162.392 109.996 162.392H102.804V152.639H109.222L111.807 159.815C112.113 160.662 111.744 161.326 111.571 161.572ZM113.937 141.746C116.923 136.258 119.264 128.883 120.689 120.051C120.935 118.522 119.896 117.083 118.367 116.836C116.838 116.589 115.399 117.629 115.152 119.158C112.537 135.371 106.372 146.832 100.149 147.029C100.1 147.031 100.048 147.031 99.9996 147.031C99.9507 147.031 99.8997 147.031 99.8389 147.029C92.2138 146.787 83.7309 128.573 83.4955 102.674C88.6 105.201 94.2204 106.525 99.9993 106.525C105.778 106.525 111.399 105.201 116.503 102.674C116.499 103.123 116.493 103.571 116.484 104.014C116.452 105.562 117.682 106.843 119.23 106.875C119.25 106.875 119.269 106.875 119.289 106.875C120.81 106.875 122.06 105.657 122.091 104.129C122.108 103.285 122.117 102.424 122.117 101.57C122.117 100.827 122.109 100.055 122.095 99.2667C124.806 97.2671 127.235 94.91 129.309 92.2715C129.73 95.3129 129.95 98.4199 129.95 101.57C129.95 111.487 127.862 120.919 123.912 128.85C121.253 134.188 117.81 138.613 113.937 141.746Z" fill="white"/>
</svg>
